<?xml version="1.0" encoding="utf-8"?>
<svg version="1.1" id="Layer_2_1_" xmlns="http://www.w3.org/2000/svg" xmlns:xlink="http://www.w3.org/1999/xlink" x="0px" y="0px"
	 viewBox="0 0 513.5 554.2" style="enable-background:new 0 0 513.5 554.2;" xml:space="preserve">
<style type="text/css">
	.st0{fill:#D8671A;}
	.st1{fill:#FFDF8F;}
	.st2{fill:#F7C745;}
	.st3{fill:#184B54;}
	.st4{fill:#3B8A9D;}
	.st5{fill:#505050;}
	.st6{fill:#DDE8E8;}
	.st7{fill:#EDAB26;}
</style>
<polygon class="st0" points="296.5,554.2 296.5,405.1 134.1,311.6 134.1,460.7 "/>
<polygon class="st1" points="296.5,554.2 296.5,405.1 470.2,304.8 470.2,453.9 "/>
<polygon class="st2" points="134.1,311.6 307.8,211.3 470.2,304.8 296.5,405.1 "/>
<polygon class="st3" points="199.6,273.8 243,248.7 405.5,342.2 362.1,367.2 "/>
<polygon class="st4" points="362.1,367.2 362.1,422.1 405.5,396.8 405.5,342.2 "/>
<polygon class="st6" points="296.5,554.2 160.1,554.2 0,461.7 134.1,384.3 134.1,460.7 "/>
<path class="st2" d="M470.4,221.3h-6.8c-6.4,0-11.6-5.2-11.6-11.6l0,0v-6.8c0-2.5-1.7-4.6-4.2-5c-2.7-0.4-5.3,1.5-5.7,4.2
	c0,0.2-0.1,0.4-0.1,0.7v7c0,6.4-5.2,11.6-11.6,11.6l0,0h-6.8c-2.5,0-4.6,1.7-5,4.2c-0.4,2.7,1.5,5.3,4.2,5.7c0.2,0,0.4,0.1,0.7,0.1
	h7c6.4,0,11.6,5.2,11.6,11.6v6.8c0,2.5,1.7,4.6,4.2,5c2.7,0.4,5.3-1.5,5.7-4.2c0-0.2,0.1-0.4,0.1-0.7v-7c0-6.4,5.2-11.6,11.6-11.6
	l0,0h7c2.8,0,5-2.3,4.9-5.1c0-0.2,0-0.4-0.1-0.7C475,222.9,472.9,221.2,470.4,221.3z"/>
<path class="st2" d="M290.8,99.1H284c-6.4,0-11.6-5.2-11.6-11.6l0,0v-6.8c0-2.5-1.7-4.6-4.2-5c-2.7-0.4-5.3,1.5-5.7,4.2
	c0,0.2-0.1,0.4-0.1,0.7v7c0,6.4-5.2,11.6-11.6,11.6H244c-2.5,0-4.6,1.7-5,4.2c-0.4,2.7,1.5,5.3,4.2,5.7c0.2,0,0.4,0.1,0.7,0.1h7
	c6.4,0,11.6,5.2,11.6,11.6l0,0v6.8c0,2.5,1.7,4.6,4.2,5c2.7,0.4,5.3-1.5,5.7-4.2c0-0.2,0.1-0.4,0.1-0.7v-7c0-6.4,5.2-11.6,11.6-11.6
	l0,0h7c2.8,0,5-2.3,4.9-5.1c0-0.2,0-0.4-0.1-0.7C295.4,100.8,293.3,99.1,290.8,99.1z"/>
<path class="st2" d="M175.7,222.9h-6.8c-6.4,0-11.6-5.2-11.6-11.6l0,0v-6.8c0-2.5-1.7-4.6-4.2-5c-2.7-0.4-5.3,1.5-5.7,4.2
	c0,0.2-0.1,0.4-0.1,0.7v7c0,6.4-5.2,11.6-11.6,11.6l0,0h-6.8c-2.5,0-4.6,1.7-5,4.2c-0.4,2.7,1.5,5.3,4.2,5.7c0.2,0,0.4,0.1,0.7,0.1
	h7c6.4,0,11.6,5.2,11.6,11.6l0,0v6.8c0,2.5,1.7,4.6,4.2,5c2.7,0.4,5.3-1.5,5.7-4.2c0-0.2,0.1-0.4,0.1-0.7v-7
	c0-6.4,5.2-11.6,11.6-11.6l0,0h7c2.8,0,5-2.3,4.9-5.1c0-0.2,0-0.4-0.1-0.7C180.4,224.6,178.2,222.8,175.7,222.9z"/>
<path class="st1" d="M242.3,148.2h-3.2c-3,0-5.4-2.4-5.4-5.4v0v-3.2c0-1.1-0.8-2.1-1.9-2.3c-1.3-0.2-2.4,0.7-2.6,1.9
	c0,0.1,0,0.2,0,0.3v3.2c0,3-2.4,5.4-5.4,5.4h0h-3.2c-1.1,0-2.1,0.8-2.3,1.9c-0.2,1.3,0.7,2.4,1.9,2.6c0.1,0,0.2,0,0.3,0h3.2
	c3,0,5.4,2.4,5.4,5.4v0v3.2c0,1.1,0.8,2.1,1.9,2.3c1.3,0.2,2.4-0.7,2.6-1.9c0-0.1,0-0.2,0-0.3v-3.2c0-3,2.4-5.4,5.4-5.4h0h3.2
	c1.3,0,2.3-1,2.3-2.3c0-0.1,0-0.2,0-0.3C244.4,149,243.4,148.2,242.3,148.2z"/>
<path class="st1" d="M185.5,88.5h-3.2c-3,0-5.4-2.4-5.4-5.4v0v-3.2c0-1.1-0.8-2.1-1.9-2.3c-1.3-0.2-2.4,0.7-2.6,1.9
	c0,0.1,0,0.2,0,0.3v3.2c0,3-2.4,5.4-5.4,5.4h0h-3.2c-1.1,0-2.1,0.8-2.3,1.9c-0.2,1.3,0.6,2.4,1.9,2.6c0.1,0,0.3,0,0.4,0h3.2
	c3,0,5.4,2.4,5.4,5.4v0v3.2c0,1.1,0.8,2.1,1.9,2.3c1.3,0.2,2.4-0.7,2.6-1.9c0-0.1,0-0.2,0-0.3v-3.2c0-3,2.4-5.4,5.4-5.4h0h3.2
	c1.3,0,2.3-1,2.3-2.3c0-0.1,0-0.2,0-0.3C187.7,89.3,186.7,88.4,185.5,88.5z"/>
<path class="st1" d="M120.6,281.8h-3.2c-3,0-5.4-2.4-5.4-5.4l0,0v-3.2c0-1.1-0.8-2.1-1.9-2.3c-1.3-0.2-2.4,0.7-2.6,1.9
	c0,0.1,0,0.2,0,0.3v3.2c0,3-2.4,5.4-5.4,5.4h0H99c-1.1,0-2.1,0.8-2.3,1.9c-0.2,1.3,0.7,2.4,1.9,2.6c0.1,0,0.2,0,0.3,0h3.2
	c3,0,5.4,2.4,5.4,5.4v0v3.2c0,1.1,0.8,2.1,1.9,2.3c1.3,0.2,2.4-0.7,2.6-1.9c0-0.1,0-0.2,0-0.3v-3.2c0-3,2.4-5.4,5.4-5.4h0h3.2
	c1.3,0,2.3-1,2.3-2.3c0-0.1,0-0.2,0-0.3C122.8,282.6,121.8,281.8,120.6,281.8z"/>
<path class="st1" d="M399.1,142.7H396c-3,0-5.4-2.4-5.4-5.4v0v-3.2c0-1.1-0.8-2.1-1.9-2.3c-1.3-0.2-2.4,0.7-2.6,1.9
	c0,0.1,0,0.2,0,0.3v3.2c0,3-2.4,5.4-5.4,5.4l0,0h-3.2c-1.1,0-2.1,0.8-2.3,1.9c-0.2,1.3,0.7,2.4,1.9,2.6c0.1,0,0.2,0,0.3,0h3.2
	c3,0,5.4,2.4,5.4,5.4v0v3.2c0,1.1,0.8,2.1,1.9,2.3c1.3,0.2,2.4-0.7,2.6-1.9c0-0.1,0-0.2,0-0.3v-3.2c0-3,2.4-5.4,5.4-5.4l0,0h3.2
	c1.3,0,2.3-1,2.3-2.3c0-0.1,0-0.2,0-0.3C401.2,143.5,400.3,142.7,399.1,142.7z"/>
<path class="st1" d="M357.4,49.3h-3.2c-3,0-5.4-2.4-5.4-5.4v0v-3.2c0-1.1-0.8-2.1-1.9-2.3c-1.3-0.2-2.4,0.7-2.6,1.9
	c0,0.1,0,0.2,0,0.3v3.2c0,3-2.4,5.4-5.4,5.4l0,0h-3.2c-1.1,0-2.1,0.8-2.3,1.9c-0.2,1.3,0.7,2.4,1.9,2.6c0.1,0,0.2,0,0.3,0h3.2
	c3,0,5.4,2.4,5.4,5.4v0v3.2c0,1.1,0.8,2.1,1.9,2.3c1.3,0.2,2.4-0.7,2.6-1.9c0-0.1,0-0.2,0-0.3v-3.2c0-3,2.4-5.4,5.4-5.4l0,0h3.2
	c1.3,0,2.3-1,2.3-2.3c0-0.1,0-0.2,0-0.3C359.5,50.1,358.5,49.3,357.4,49.3z"/>
<path class="st1" d="M505.1,190.6H502c-3,0-5.4-2.4-5.4-5.4v0v-3.2c0-1.1-0.8-2.1-1.9-2.3c-1.3-0.2-2.4,0.7-2.6,1.9
	c0,0.1,0,0.2,0,0.3v3.2c0,3-2.4,5.4-5.4,5.4l0,0h-3.2c-1.1,0-2.1,0.8-2.3,1.9c-0.2,1.3,0.7,2.4,1.9,2.6c0.1,0,0.2,0,0.3,0h3.2
	c3,0,5.4,2.4,5.4,5.4v0v3.2c0,1.1,0.8,2.1,1.9,2.3c1.3,0.2,2.4-0.7,2.6-1.9c0-0.1,0-0.2,0-0.3v-3.2c0-3,2.4-5.4,5.4-5.4l0,0h3.2
	c1.3,0,2.3-1,2.3-2.3c0-0.1,0-0.2,0-0.3C507.3,191.4,506.3,190.6,505.1,190.6z"/>
<circle class="st7" cx="375.1" cy="79.7" r="7.4"/>
<circle class="st7" cx="88.6" cy="253.1" r="7.4"/>
<circle class="st7" cx="508.5" cy="250.2" r="5"/>
<circle class="st7" cx="320.1" cy="170.2" r="7.4"/>
<circle class="st7" cx="244.6" cy="198.7" r="7.4"/>
<circle class="st7" cx="289.1" cy="5" r="5"/>
<ellipse transform="matrix(0.8886 -0.4586 0.4586 0.8886 -24.313 229.9217)" class="st7" cx="461.2" cy="165" rx="7.4" ry="7.4"/>
<circle class="st7" cx="431.2" cy="98.2" r="5"/>
<circle class="st7" cx="388.3" cy="200.8" r="5"/>
<circle class="st7" cx="194.1" cy="182.9" r="5"/>
<circle class="st7" cx="110.8" cy="162.8" r="7.4"/>
<circle class="st7" cx="259.5" cy="35.6" r="7.4"/>
<circle class="st7" cx="147.9" cy="132.8" r="5"/>
<ellipse transform="matrix(0.2401 -0.9708 0.9708 0.2401 100.8769 685.8299)" class="st7" cx="488.5" cy="278.5" rx="7.4" ry="7.4"/>
<circle class="st7" cx="327.5" cy="112.2" r="5"/>
</svg>
